# AST/ASF file generated using VICON BodyLanguage
# -----------------------------------------------
:version 1.10
:name VICON
:units
  mass 1.0
  length 0.45
  angle deg
:documentation
   .ast/.asf automatically generated from VICON data using
   VICON BodyBuilder and BodyLanguage model FoxedUp or BRILLIANT.MOD
:root
   order TX TY TZ RX RY RZ
   axis XYZ
   position 0 0 0  
   orientation 0 0 0 
:bonedata
  begin
     id 1 
     name lhipjoint
     direction 0.710188 -0.616876 0.339259 
     length 2.5669 
     axis 0 0 0  XYZ
  end
  begin
     id 2 
     name lfemur
     direction 0.34202 -0.939693 0  
     length 7.12796  
     axis 0 0 20  XYZ
    dof rx ry rz
    limits (-160.0 20.0)
           (-70.0 70.0)
           (-60.0 70.0)
  end
  begin
     id 3 
     name ltibia
     direction 0.34202 -0.939693 0   
     length 7.58108   
     axis 0 0 20   XYZ
    dof rx
    limits (-10.0 170.0)
  end
  begin
     id 4 
     name lfoot
     direction 0.0669471 -0.183936 0.980656   
     length 2.17365   
     axis -90 7.62852e-016 20   XYZ
    dof rx rz
    limits (-45.0 90.0)
           (-70.0 20.0)
  end
  begin
     id 5 
     name ltoes
     direction 1.53508e-011 -4.21705e-011 1   
     length 1.09427   
     axis -90 7.62852e-016 20   XYZ
    dof rx
    limits (-90.0 20.0)
  end
  begin
     id 6 
     name rhipjoint
     direction -0.700191 -0.625589 0.34405   
     length 2.53115  
     axis 0 0 0  XYZ 
  end
  begin
     id 7 
     name rfemur
     direction -0.34202 -0.939693 0   
     length 7.33006   
     axis 0 0 -20   XYZ
    dof rx ry rz
    limits (-160.0 20.0)
           (-70.0 70.0)
           (-70.0 60.0)
  end
  begin
     id 8 
     name rtibia
     direction -0.34202 -0.939693 0   
     length 7.64926   
     axis 0 0 -20   XYZ
    dof rx
    limits (-10.0 170.0)
 end
 begin
     id 9 
     name rfoot
     direction -0.0688927 -0.189281 0.979503   
     length 2.20493  
     axis -90 -7.62852e-016 -20   XYZ
    dof rx rz
    limits (-45.0 90.0)
           (-20.0 70.0)
  end
  begin
     id 10 
     name rtoes
     direction -1.53567e-011 -4.21933e-011 1   
     length 1.10919   
     axis -90 -7.62852e-016 -20   XYZ
    dof rx
    limits (-90.0 20.0)
  end
  begin
     id 11 
     name lowerback
     direction -0.0167868 0.989873 -0.140959   
     length 2.14596   
     axis 0 0 0   XYZ
    dof rx ry rz
    limits (-20.0 45.0)
           (-30.0 30.0)
           (-30.0 30.0)
  end
  begin
     id 12 
     name upperback
     direction 0.0129109 0.998033 0.0613525   
     length 2.10457   
     axis 0 0 0   XYZ
    dof rx ry rz
    limits (-20.0 45.0)
           (-30.0 30.0)
           (-30.0 30.0)
  end
  begin
     id 13 
     name thorax
     direction 0.0177047 0.991119 0.131797   
     length 2.17652   
     axis 0 0 0   XYZ
    dof rx ry rz
    limits (-20.0 45.0)
           (-30.0 30.0)
           (-30.0 30.0)
  end
  begin
     id 14 
     name lowerneck
     direction -0.0336893 0.997548 0.0613464   
     length 1.8912   
     axis 0 0 0   XYZ
    dof rx ry rz
    limits (-20.0 45.0)
           (-30.0 30.0)
           (-30.0 30.0)
  end
  begin
     id 15 
     name upperneck
     direction 0.0435909 0.997179 -0.0611028   
     length 1.8829   
     axis 0 0 0   XYZ
    dof rx ry rz
    limits (-20.0 45.0)
           (-30.0 30.0)
           (-30.0 30.0)
  end
  begin
     id 16
     name head
     direction 0.0175076 0.999444 -0.0283782  
     length 1.93197  
     axis 0 0 0   XYZ
    dof rx ry rz
    limits (-20.0 45.0)
           (-30.0 30.0)
           (-30.0 30.0)
  end
  begin
     id 17 
     name lclavicle
     direction 0.919164 0.389875 0.0559876  
     length 3.60004  
     axis 0 0 0   XYZ
    dof ry rz
    limits (-20.0 10.0)
           (0.0 20.0)
  end
  begin
     id 18 
     name lhumerus
     direction 1 -4.48958e-011 6.89191e-027   
     length 5.43301   
     axis 180 -30 -90   XYZ
    dof rx ry rz
    limits (-60.0 90.0)
           (-90.0 90.0)
           (-90.0 90.0)
  end
  begin
     id 19
     name lradius
     direction 1 -4.4897e-011 3.24727e-027   
     length 3.15936   
     axis 180 -30 -90   XYZ
    dof rx
    limits (-10.0 170.0)
  end
  begin
     id 20
     name lwrist
     direction 1 -4.4897e-011 9.00228e-027   
     length 1.57968   
     axis -6.29373e-015 90 90   XYZ
    dof ry
    limits (-180.0 0.0)
 end
  begin
     id 21 
     name lhand
     direction 1 -4.48968e-011 1.80042e-026   
     length 0.712827   
     axis -1.14882e-014 90 90   XYZ
    dof rx rz
    limits (-90.0 90.0)
           (-45.0 45.0)
  end
  begin
     id 22 
     name lfingers
     direction 1 -4.49019e-011 3.60267e-026   
     length 0.574699   
     axis -2.29769e-014 90 90   XYZ
    dof rx
    limits (0.0 90.0)
  end
  begin
     id 23
     name lthumb
     direction 0.707107 -6.3498e-011 0.707107   
     length 0.825157   
     axis -90 45 5.37419e-014   XYZ
    dof rx rz
    limits (-45.0 45.0)
           (-45.0 45.0)
  end
  begin
     id 24 
     name rclavicle
     direction -0.890334 0.455305 -0.00132111   
     length 3.51494  
     axis 0 0 0   XYZ 
    dof ry rz
    limits (-10.0 20.0)
           (-20.0 0.0)
  end
  begin
     id 25 
     name rhumerus
     direction -1 -4.48967e-011 5.07175e-028  
     length 5.34194   
     axis 180 30 90   XYZ
    dof rx ry rz
    limits (-90.0 60.0)
           (-90.0 90.0)
           (-90.0 90.0)
  end
  begin
     id 26 
     name rradius
     direction -1 -4.48955e-011 3.30467e-027   
     length 3.19351   
     axis 180 30 90   XYZ
    dof rx
    limits (-10.0 170.0)
  end
  begin
     id 27 
     name rwrist
     direction -1 -4.48968e-011 9.00208e-027   
     length 1.59676   
     axis -6.29373e-015 -90 -90   XYZ
    dof ry
    limits (-180.0 0.0)
  end
  begin
     id 28
     name rhand
     direction -1 -4.49e-011 1.80099e-026   
     length 0.743862   
     axis -1.14882e-014 -90 -90   XYZ
    dof rx rz
    limits (-90.0 90.0)
           (-45.0 45.0)
  end
  begin
     id 29
     name rfingers
     direction -1 -4.49009e-011 3.6023e-026   
     length 0.599721   
     axis -2.29769e-014 -90 -90   XYZ
    dof rx
    limits (0.0 90.0)
  end
  begin
     id 30
     name rthumb
     direction -0.707107 -6.35025e-011 0.707107   
     length 0.861083   
     axis -90 -45 -5.37419e-014   XYZ
    dof rx rz
    limits (-45.0 45.0)
           (-45.0 45.0)
  end
:hierarchy
  begin
    root lhipjoint rhipjoint lowerback
    lhipjoint lfemur
    lfemur ltibia
    ltibia lfoot
    lfoot ltoes
    rhipjoint rfemur
    rfemur rtibia
    rtibia rfoot
    rfoot rtoes
    lowerback upperback
    upperback thorax
    thorax lowerneck lclavicle rclavicle
    lowerneck upperneck
    upperneck head
    lclavicle lhumerus
    lhumerus lradius
    lradius lwrist
    lwrist lhand lthumb
    lhand lfingers
    rclavicle rhumerus
    rhumerus rradius
    rradius rwrist
    rwrist rhand rthumb
    rhand rfingers
  end

#!OML:ASF H:\Martial Arts Walks\Project 1\Capture day 1\Session 1\male.ASF
:FULLY-SPECIFIED
:DEGREES
247
root -2.0465 14.4339 -35.2144 6.48197 -25.0298 -11.7753
lowerback 14.5667 4.43309 5.08049
upperback -0.0296812 6.9269 2.41386
thorax -7.89046 3.1941 -1.71062
lowerneck -3.89261 -0.268504 -2.78025
upperneck 3.91269 -0.42685 4.87532
head 1.93168 -0.139188 2.02673
rclavicle -1.5207e-014 -4.41302e-014
rhumerus -34.959 28.4161 -80.2609
rradius 79.3508
rwrist 8.35905
rhand -15.1003 -39.1691
rfingers 7.12502
rthumb 11.068 -68.8572
lclavicle -1.5207e-014 -4.41302e-014
lhumerus -16.2346 -11.6478 79.6646
lradius 54.2355
lwrist 2.84256
lhand -27.6898 19.2872
lfingers 7.12502
lthumb -1.0863 49.2641
rfemur 5.54213 -5.644 15.3528
rtibia 46.8778
rfoot -29.3783 -27.9754
rtoes -25.7689
lfemur -62.1123 30.7375 -9.91539
ltibia 71.0741
lfoot -6.8189 0.520934
ltoes 8.00918
248
root -2.04639 14.4255 -35.2069 6.58824 -25.0708 -11.7707
lowerback 14.4 4.46426 5.05492
upperback -0.0868328 6.95565 2.39971
thorax -7.85818 3.21026 -1.70493
lowerneck -3.97308 -0.282586 -2.74493
upperneck 4.04703 -0.450188 4.85773
head 1.99062 -0.14884 2.01592
rclavicle 2.18166e-014 -3.97569e-016
rhumerus -35.1352 28.3328 -80.2957
rradius 79.7488
rwrist 7.75391
rhand -14.8211 -39.4822
rfingers 7.12502
rthumb 11.3372 -69.1557
lclavicle 2.18166e-014 -3.97569e-016
lhumerus -16.251 -11.663 79.6607
lradius 54.3184
lwrist 2.86399
lhand -27.6685 19.2277
lfingers 7.12502
lthumb -1.06571 49.2048
rfemur 5.56693 -5.53256 15.3556
rtibia 46.7369
rfoot -29.5078 -27.95
rtoes -25.7928
lfemur -62.1733 30.8028 -9.92903
ltibia 71.1148
lfoot -7.35557 0.597956
ltoes 8.33
249
root -2.04544 14.412 -35.2015 6.65737 -25.1111 -11.8121
lowerback 14.2986 4.49781 5.10087
upperback -0.143033 7.00321 2.37956
thorax -7.85134 3.23125 -1.75393
lowerneck -4.00036 -0.300398 -2.68332
upperneck 4.17392 -0.480588 4.83612
head 2.03759 -0.162365 1.99838
rclavicle 2.11209e-014 -1.23246e-014
rhumerus -35.3617 28.1837 -80.3554
rradius 80.1819
rwrist 7.05184
rhand -14.734 -39.6581
rfingers 7.12502
rthumb 11.4213 -69.327
lclavicle 2.11209e-014 -1.23246e-014
lhumerus -16.2751 -11.7557 79.6394
lradius 54.4195
lwrist 2.90336
lhand -27.7221 19.1155
lfingers 7.12502
lthumb -1.11755 49.0924
rfemur 5.64662 -5.38286 15.4149
rtibia 46.6139
rfoot -29.5594 -28.041
rtoes -25.9222
lfemur -62.1846 30.864 -9.87066
ltibia 71.1859
lfoot -7.83502 0.682756
ltoes 8.10716
250
root -2.04635 14.3992 -35.1946 6.67637 -25.1892 -11.7648
lowerback 14.1805 4.54019 5.02302
upperback -0.193901 7.04043 2.35469
thorax -7.84374 3.25239 -1.73655
lowerneck -4.04172 -0.284309 -2.64465
upperneck 4.3582 -0.466213 4.81806
head 2.10439 -0.153297 1.98822
rclavicle -8.90058e-014 -1.82882e-014
rhumerus -35.5452 28.0856 -80.4128
rradius 80.5763
rwrist 6.29337
rhand -14.5212 -39.8193
rfingers 7.12502
rthumb 11.6266 -69.4768
lclavicle -8.90058e-014 -1.82882e-014
lhumerus -16.3082 -11.8128 79.6142
lradius 54.5202
lwrist 2.89617
lhand -27.7314 18.9978
lfingers 7.12502
lthumb -1.12645 48.9746
rfemur 5.72346 -5.21229 15.3956
rtibia 46.5097
rfoot -29.5152 -28.3047
rtoes -26.3051
lfemur -62.1732 30.9834 -9.91908
ltibia 71.2562
lfoot -8.42181 0.767838
ltoes 8.11477
